<svg width="20" height="19" viewBox="0 0 20 19" fill="none" xmlns="http://www.w3.org/2000/svg">
<mask id="path-1-inside-1_3_963" fill="white">
<path fill-rule="evenodd" clip-rule="evenodd" d="M4.32848 12.8718C9.74473 12.8718 14.1355 8.48106 14.1355 3.06481C14.1355 2.01336 13.97 1.00056 13.6637 0.0510254C17.147 1.55589 19.5847 5.02226 19.5847 9.05798C19.5847 14.4742 15.1939 18.865 9.7777 18.865C5.4129 18.865 1.7141 16.0135 0.442505 12.0718C1.63406 12.5865 2.94796 12.8718 4.32848 12.8718Z"/>
</mask>
<path fill-rule="evenodd" clip-rule="evenodd" d="M4.32848 12.8718C9.74473 12.8718 14.1355 8.48106 14.1355 3.06481C14.1355 2.01336 13.97 1.00056 13.6637 0.0510254C17.147 1.55589 19.5847 5.02226 19.5847 9.05798C19.5847 14.4742 15.1939 18.865 9.7777 18.865C5.4129 18.865 1.7141 16.0135 0.442505 12.0718C1.63406 12.5865 2.94796 12.8718 4.32848 12.8718Z" fill="black"/>
<path d="M13.6637 0.0510254L14.2233 -1.24428L11.3648 -2.47921L12.3208 0.484234L13.6637 0.0510254ZM0.442505 12.0718L1.00211 10.7765L-1.85637 9.54154L-0.900365 12.505L0.442505 12.0718ZM12.7244 3.06481C12.7244 7.70178 8.96544 11.4608 4.32848 11.4608V14.2828C10.524 14.2828 15.5465 9.26035 15.5465 3.06481H12.7244ZM12.3208 0.484234C12.5825 1.29549 12.7244 2.1622 12.7244 3.06481H15.5465C15.5465 1.86452 15.3575 0.705629 15.0065 -0.382183L12.3208 0.484234ZM13.1041 1.34633C16.0891 2.63593 18.1737 5.60511 18.1737 9.05798H20.9957C20.9957 4.4394 18.2048 0.475851 14.2233 -1.24428L13.1041 1.34633ZM18.1737 9.05798C18.1737 13.6949 14.4147 17.4539 9.7777 17.4539V20.276C15.9732 20.276 20.9957 15.2535 20.9957 9.05798H18.1737ZM9.7777 17.4539C6.04306 17.4539 2.87447 15.0146 1.78537 11.6386L-0.900365 12.505C0.55373 17.0124 4.78275 20.276 9.7777 20.276V17.4539ZM4.32848 11.4608C3.14398 11.4608 2.02026 11.2163 1.00211 10.7765L-0.117097 13.3671C1.24785 13.9568 2.75193 14.2828 4.32848 14.2828V11.4608Z" fill="black" mask="url(#path-1-inside-1_3_963)"/>
</svg>
