<svg width="21" height="19" viewBox="0 0 21 19" fill="none" xmlns="http://www.w3.org/2000/svg">
<mask id="path-1-inside-1_3_1036" fill="white">
<path fill-rule="evenodd" clip-rule="evenodd" d="M4.82848 12.8718C10.2447 12.8718 14.6355 8.48106 14.6355 3.06481C14.6355 2.01336 14.47 1.00056 14.1637 0.0510254C17.647 1.55589 20.0847 5.02226 20.0847 9.05798C20.0847 14.4742 15.6939 18.865 10.2777 18.865C5.9129 18.865 2.2141 16.0135 0.942505 12.0718C2.13406 12.5865 3.44796 12.8718 4.82848 12.8718Z"/>
</mask>
<path fill-rule="evenodd" clip-rule="evenodd" d="M4.82848 12.8718C10.2447 12.8718 14.6355 8.48106 14.6355 3.06481C14.6355 2.01336 14.47 1.00056 14.1637 0.0510254C17.647 1.55589 20.0847 5.02226 20.0847 9.05798C20.0847 14.4742 15.6939 18.865 10.2777 18.865C5.9129 18.865 2.2141 16.0135 0.942505 12.0718C2.13406 12.5865 3.44796 12.8718 4.82848 12.8718Z" fill="white"/>
<path d="M14.1637 0.0510254L14.7233 -1.24428L11.8648 -2.47921L12.8208 0.484234L14.1637 0.0510254ZM0.942505 12.0718L1.50211 10.7765L-1.35637 9.54154L-0.400365 12.505L0.942505 12.0718ZM13.2244 3.06481C13.2244 7.70178 9.46544 11.4608 4.82848 11.4608V14.2828C11.024 14.2828 16.0465 9.26035 16.0465 3.06481H13.2244ZM12.8208 0.484234C13.0825 1.29549 13.2244 2.1622 13.2244 3.06481H16.0465C16.0465 1.86452 15.8575 0.705629 15.5065 -0.382183L12.8208 0.484234ZM13.6041 1.34633C16.5891 2.63593 18.6737 5.60511 18.6737 9.05798H21.4957C21.4957 4.4394 18.7048 0.475851 14.7233 -1.24428L13.6041 1.34633ZM18.6737 9.05798C18.6737 13.6949 14.9147 17.4539 10.2777 17.4539V20.276C16.4732 20.276 21.4957 15.2535 21.4957 9.05798H18.6737ZM10.2777 17.4539C6.54306 17.4539 3.37447 15.0146 2.28537 11.6386L-0.400365 12.505C1.05373 17.0124 5.28275 20.276 10.2777 20.276V17.4539ZM4.82848 11.4608C3.64398 11.4608 2.52026 11.2163 1.50211 10.7765L0.382903 13.3671C1.74785 13.9568 3.25193 14.2828 4.82848 14.2828V11.4608Z" fill="white" mask="url(#path-1-inside-1_3_1036)"/>
</svg>
